
<svg id="Calque_1" data-name="Calque 1" xmlns="http://www.w3.org/2000/svg" viewBox="0 0 509.74 519.19"><defs><style>.cls-1{font-size:50px;}.cls-1,.cls-4{fill:#2c689a;}.cls-1,.cls-5{font-family:Optiko;}.cls-2,.cls-5{fill:#46b6a0;}.cls-3{fill:#be1622;}.cls-5{font-size:25px;}</style></defs><text class="cls-1" transform="translate(0 405.54) scale(1.15 1)">CAPITAL INVESTMENT</text><path class="cls-2" d="M362.38,208.25l-3.28-3.95-4.54,2.85c-14.49,9.1-17.76,26.69-7.29,39.29l3.28,3.95,4.54-2.85C369.58,238.44,372.85,220.85,362.38,208.25Z" transform="translate(-43.59 -177.01)"/><path class="cls-2" d="M363,270l-5.12,2,2.28,4.45c7.26,14.2,26.39,20.6,42.73,14.28l5.12-2-2.28-4.44C398.43,270.08,379.3,263.69,363,270Z" transform="translate(-43.59 -177.01)"/><path class="cls-2" d="M363.64,354.44l-.24,4.86,5.6.21c17.86.65,32.95-11.41,33.7-26.94l.23-4.87-5.59-.2C379.47,326.85,364.39,338.91,363.64,354.44Z" transform="translate(-43.59 -177.01)"/><path class="cls-3" d="M399.46,442l-.23,4.87,5.59.2c17.86.65,32.95-11.41,33.7-26.94l.23-4.86-5.59-.21C415.3,414.43,400.21,426.49,399.46,442Z" transform="translate(-43.59 -177.01)"/><path class="cls-3" d="M359.64,258.09,359.4,263l5.6.2c17.86.65,32.95-11.41,33.7-26.94l.23-4.86-5.59-.2C375.47,230.5,360.39,242.57,359.64,258.09Z" transform="translate(-43.59 -177.01)"/><path class="cls-2" d="M332.07,424l.6,4.84,5.56-.52c17.78-1.66,30.64-15.53,28.74-31l-.6-4.84-5.57.52C343,394.67,330.16,408.54,332.07,424Z" transform="translate(-43.59 -177.01)"/><path class="cls-2" d="M342.76,377.4,339,381l4.14,3.28c13.21,10.46,33.69,9.63,45.73-1.86l3.77-3.6-4.14-3.28C375.27,365.08,354.8,365.91,342.76,377.4Z" transform="translate(-43.59 -177.01)"/><path class="cls-2" d="M401.73,459,397,461.6l3,4.1c9.63,13.1,29.65,16.92,44.71,8.54l4.72-2.62-3-4.1C436.81,454.43,416.79,450.6,401.73,459Z" transform="translate(-43.59 -177.01)"/><path class="cls-2" d="M403.25,367.29l-3.84-3.55-4.08,3.33c-13,10.64-13.68,28.45-1.44,39.78l3.84,3.55,4.08-3.33C414.84,396.43,415.48,378.62,403.25,367.29Z" transform="translate(-43.59 -177.01)"/><path class="cls-2" d="M347.45,283.27,342.5,281l-2.61,4.31c-8.3,13.76-2.19,30.77,13.64,38l5,2.26,2.6-4.31C369.39,307.49,363.29,290.48,347.45,283.27Z" transform="translate(-43.59 -177.01)"/><path class="cls-2" d="M298,344.21l-.24,4.87,5.6.2c17.86.65,32.95-11.41,33.7-26.94l.23-4.86-5.59-.21C313.83,316.62,298.75,328.68,298,344.21Z" transform="translate(-43.59 -177.01)"/><path class="cls-2" d="M230.22,181l3.27-4,4.54,2.85c14.5,9.1,17.76,26.69,7.3,39.29l-3.28,3.95-4.54-2.85C223,211.15,219.75,193.56,230.22,181Z" transform="translate(-43.59 -177.01)"/><path class="cls-2" d="M229.63,242.71l5.12,2-2.27,4.45c-7.27,14.2-26.4,20.59-42.74,14.28l-5.11-2L186.9,257C194.17,242.79,213.3,236.4,229.63,242.71Z" transform="translate(-43.59 -177.01)"/><path class="cls-3" d="M233,326.15l.23,4.86-5.59.2c-17.86.66-32.95-11.41-33.7-26.93l-.24-4.87,5.6-.2C217.12,298.56,232.21,310.62,233,326.15Z" transform="translate(-43.59 -177.01)"/><path class="cls-2" d="M193.14,415.73l.23,4.86-5.59.21c-17.87.65-33-11.41-33.71-26.94l-.23-4.86,5.6-.21C177.3,388.14,192.39,400.2,193.14,415.73Z" transform="translate(-43.59 -177.01)"/><path class="cls-2" d="M229,228.8l.23,4.87-5.59.2c-17.86.65-32.95-11.41-33.7-26.94l-.24-4.86,5.6-.21C213.12,201.21,228.21,213.27,229,228.8Z" transform="translate(-43.59 -177.01)"/><path class="cls-2" d="M260.53,396.7l-.6,4.84-5.57-.52c-17.78-1.66-30.64-15.53-28.73-31l.6-4.84,5.56.51C249.57,367.37,262.43,381.25,260.53,396.7Z" transform="translate(-43.59 -177.01)"/><path class="cls-2" d="M249.84,350.11l3.77,3.6L249.47,357c-13.22,10.47-33.69,9.64-45.73-1.85l-3.77-3.6,4.14-3.28C217.33,337.79,237.8,338.62,249.84,350.11Z" transform="translate(-43.59 -177.01)"/><path class="cls-2" d="M190.87,431.69l4.71,2.62-3,4.1c-9.64,13.09-29.66,16.92-44.72,8.54l-4.72-2.62,3-4.1C155.79,427.14,175.81,423.31,190.87,431.69Z" transform="translate(-43.59 -177.01)"/><path class="cls-2" d="M187.07,337.75h0a6,6,0,0,1,7.86-.6l0,0c13.49,10.05,14.93,27.81,3.21,39.68h0a6,6,0,0,1-7.86.59l0,0C176.79,367.38,175.35,349.62,187.07,337.75Z" transform="translate(-43.59 -177.01)"/><path class="cls-2" d="M245.14,256l5-2.26,2.6,4.32c8.3,13.76,2.2,30.77-13.64,38l-5,2.26L231.5,294C223.2,280.2,229.31,263.19,245.14,256Z" transform="translate(-43.59 -177.01)"/><path class="cls-4" d="M381.2,459.45c19.94-24.3,21.52-56.29,20.55-73.83H398.5c-6,55.25-39,75.29-65.73,82.38-12.69,3.37-25.49-5-25.49-16.55,30.3-13.48,39.32-32,42-41.9h-1.9c-7.38,10.73-25.5,18.71-40.1,23.67v-6.67a29.53,29.53,0,0,1,9.57-21.43c14.26-13.48,33.19-25.54,55.76-26.35-1.41,0-20-3.14-40.12,3.48,32.64-28.18,28.91-59.08,23.87-74.81H355c4.34,25.13-12.76,45.82-29.35,59.51-6.91,5.69-18.32,1.32-18.32-6.95V301.18c0-6.7,4.88-12.53,12-15a52.89,52.89,0,0,0,17.83-10.11c12.71-1.42,27.32-.5,34-.33v-1.59a66.13,66.13,0,0,0-28.54-3.69c12.32-15,13.29-34.76,12.7-45.59h-2c-2.46,22.72-12.34,35.8-23.53,43.29-9.17,6.13-22.46.33-22.46-9.73V216.5H296.07v3.58H285.32v11.06c0,10.06-13.3,15.86-22.47,9.72-11.19-7.48-21.06-20.56-23.52-43.29h-2c-.6,10.84.38,30.59,12.69,45.6a66.09,66.09,0,0,0-28.53,3.69v1.59c6.65-.18,21.26-1.09,34,.33a53,53,0,0,0,17.83,10.11c7.16,2.46,12,8.3,12,15V332.7c0,8.28-11.42,12.65-18.33,6.95-16.59-13.68-33.68-34.37-29.34-59.5h-1.42c-5,15.73-8.77,46.63,23.88,74.81-20.1-6.62-38.72-3.49-40.13-3.49,22.54.82,41.45,12.84,55.7,26.31a29.63,29.63,0,0,1,9.64,21.55v6.6c-14.6-5-32.73-12.94-40.1-23.67h-1.9c2.67,9.86,11.69,28.42,42,41.9v20.23c-23.8-.72-83-10.21-91.22-86.07h-3.26c-1,17.55.62,49.54,20.56,73.84a107.27,107.27,0,0,0-46.22,6v2.57c10.78-.28,34.44-1.76,55,.54,10.44,9.14,24.47,16.42,43.21,20.24l.07,0a7.78,7.78,0,0,1,6.46,7.4v55.19h49.72V499.55c0-5,3.8-9.56,9.4-10.72l.1,0c18.75-3.83,32.77-11.11,43.22-20.25,20.59-2.3,44.25-.82,55-.54v-2.57A107.61,107.61,0,0,0,381.2,459.45Z" transform="translate(-43.59 -177.01)"/><path class="cls-2" d="M294.6,440.4l.23,4.86-5.59.2c-17.86.66-32.95-11.4-33.7-26.93l-.24-4.87,5.6-.2C278.76,412.81,293.85,424.87,294.6,440.4Z" transform="translate(-43.59 -177.01)"/><path class="cls-2" d="M298.91,220.7l-4.63,2.45-3.08-4.25c-9.84-13.59-5.82-31,9-38.78l4.63-2.45,3.08,4.26C317.71,195.51,313.69,212.87,298.91,220.7Z" transform="translate(-43.59 -177.01)"/><path class="cls-2" d="M294.6,316.92l.23,4.86-5.59.21c-17.86.65-32.95-11.41-33.7-26.94l-.24-4.86,5.6-.21C278.76,289.33,293.85,301.39,294.6,316.92Z" transform="translate(-43.59 -177.01)"/><rect class="cls-4" x="2.13" y="346.28" width="507.61" height="4.47"/><text class="cls-5" transform="translate(124.02 441.52)">PARIS LAUSANNE DUBAÏ</text><line class="cls-4" x1="497.67" y1="507.21" x2="500.47" y2="519.19"/><rect class="cls-4" x="2.13" y="470.61" width="507.61" height="3.99"/></svg>